<?xml version="1.0" standalone="no"?><!DOCTYPE svg PUBLIC "-//W3C//DTD SVG 1.1//EN" "http://www.w3.org/Graphics/SVG/1.1/DTD/svg11.dtd"><svg t="1638523513934" class="icon" viewBox="0 0 1024 1024" version="1.1" xmlns="http://www.w3.org/2000/svg" p-id="2379" xmlns:xlink="http://www.w3.org/1999/xlink" width="300" height="300"><defs><style type="text/css"></style></defs><path d="M333.824 986.112H178.176c-78.848 0-143.36-64.512-143.36-143.36V175.616c0-78.848 64.512-143.36 143.36-143.36h667.136c78.848 0 143.36 64.512 143.36 143.36v155.136c0 22.528-18.432 40.96-40.96 40.96s-40.96-18.432-40.96-40.96V175.616c0-33.792-27.648-61.44-61.44-61.44H178.176c-33.792 0-61.44 27.648-61.44 61.44v667.136c0 33.792 27.648 61.44 61.44 61.44h155.136c22.528 0 40.96 18.432 40.96 40.96s-17.92 40.96-40.448 40.96zM494.08 976.384c-10.24 0-20.992-4.096-29.184-11.776-15.872-15.872-15.872-41.984 0-57.856L916.48 454.656c15.872-15.872 41.984-15.872 57.856 0 15.872 15.872 15.872 41.984 0 57.856l-451.584 451.584c-7.68 8.192-18.432 12.288-28.672 12.288z" fill="" p-id="2380"></path><path d="M782.336 340.992H241.664c-22.528 0-40.96-18.432-40.96-40.96s18.432-40.96 40.96-40.96h541.184c22.528 0 40.96 18.432 40.96 40.96s-18.432 40.96-41.472 40.96zM557.056 619.008H241.664c-22.528 0-40.96-18.432-40.96-40.96s18.432-40.96 40.96-40.96h315.904c22.528 0 40.96 18.432 40.96 40.96s-18.432 40.96-41.472 40.96z" fill="" p-id="2381"></path></svg>