<?xml version="1.0" standalone="no"?><!DOCTYPE svg PUBLIC "-//W3C//DTD SVG 1.1//EN" "http://www.w3.org/Graphics/SVG/1.1/DTD/svg11.dtd"><svg t="1638523736767" class="icon" viewBox="0 0 1024 1024" version="1.1" xmlns="http://www.w3.org/2000/svg" p-id="8009" xmlns:xlink="http://www.w3.org/1999/xlink" width="300" height="300"><defs><style type="text/css"></style></defs><path d="M978.56 224H379.52a32 32 0 0 1-32-32 32.64 32.64 0 0 1 32-32h599.04a32 32 0 0 1 32 32 32 32 0 0 1-32 32zM978.56 565.12H379.52a32 32 0 0 1-32-32 32.64 32.64 0 0 1 32-32h599.04a32 32 0 0 1 32 32 32 32 0 0 1-32 32zM978.56 906.88H379.52a32.64 32.64 0 0 1-32-32 32 32 0 0 1 32-32h599.04a32 32 0 0 1 32 32 32 32 0 0 1-32 32zM114.56 284.16a32.64 32.64 0 0 1-23.04-9.6L22.4 206.08a32.64 32.64 0 0 1 0-45.44 32 32 0 0 1 45.44 0l46.72 46.08 97.28-97.28a32 32 0 0 1 45.44 0 32.64 32.64 0 0 1 0 45.44L136.96 274.56a32 32 0 0 1-22.4 9.6zM114.56 618.88a32.64 32.64 0 0 1-23.04-9.6L22.4 540.16a32 32 0 0 1 0-44.8 32 32 0 0 1 45.44 0l46.72 46.08 97.28-97.28a32 32 0 0 1 45.44 0 32 32 0 0 1 0 44.8L136.96 609.28a32 32 0 0 1-22.4 9.6zM114.56 967.04a32.64 32.64 0 0 1-23.04-7.04L22.4 888.32a32.64 32.64 0 0 1 0-45.44 32.64 32.64 0 0 1 45.44 0l46.72 46.72 97.28-97.92a32 32 0 1 1 45.44 45.44L136.96 960a32 32 0 0 1-22.4 7.04z" fill="" p-id="8010"></path></svg>