<?xml version="1.0" standalone="no"?><!DOCTYPE svg PUBLIC "-//W3C//DTD SVG 1.1//EN" "http://www.w3.org/Graphics/SVG/1.1/DTD/svg11.dtd"><svg t="1638524311649" class="icon" viewBox="0 0 1024 1024" version="1.1" xmlns="http://www.w3.org/2000/svg" p-id="2586" xmlns:xlink="http://www.w3.org/1999/xlink" width="300" height="300"><defs><style type="text/css"></style></defs><path d="M801.92 915.2h-578.56c-27.776 0-50.432-22.656-50.432-50.432V209.28c0-27.776 22.656-50.432 50.432-50.432h174.208v64H236.928V851.2h551.424V222.848H624.768v-64h177.152c27.776 0 50.432 22.656 50.432 50.432v655.488c0 27.776-22.656 50.432-50.432 50.432z" fill="" p-id="2587"></path><path d="M674.176 252.416H351.104c-8.448 0-15.36-6.912-15.36-15.36V195.84c0-8.448 6.912-15.36 15.36-15.36h323.072c8.448 0 15.36 6.912 15.36 15.36v41.216c0 8.448-6.912 15.36-15.36 15.36z" fill="" p-id="2588"></path><path d="M656.64 183.68h-64c0-44.8-36.48-81.28-81.28-81.28S430.08 138.88 430.08 183.68h-64C366.08 103.552 431.232 38.4 511.36 38.4S656.64 103.552 656.64 183.68zM438.99776 640.47872L680.2944 399.1808l45.2544 45.2544-241.29664 241.29664z" fill="" p-id="2589"></path><path d="M702.976 421.76m-32 0a32 32 0 1 0 64 0 32 32 0 1 0-64 0Z" fill="" p-id="2590"></path><path d="M310.17984 556.48768l45.2544-45.2544L483.8656 639.66464l-45.2544 45.2544z" fill="" p-id="2591"></path><path d="M332.8 533.888m-32 0a32 32 0 1 0 64 0 32 32 0 1 0-64 0Z" fill="" p-id="2592"></path><path d="M461.184 662.272m-32 0a32 32 0 1 0 64 0 32 32 0 1 0-64 0Z" fill="" p-id="2593"></path></svg>