<?xml version="1.0" standalone="no"?><!DOCTYPE svg PUBLIC "-//W3C//DTD SVG 1.1//EN" "http://www.w3.org/Graphics/SVG/1.1/DTD/svg11.dtd"><svg t="1648688864122" class="icon" viewBox="0 0 1024 1024" version="1.1" xmlns="http://www.w3.org/2000/svg" p-id="2657" xmlns:xlink="http://www.w3.org/1999/xlink" width="200" height="200"><defs><style type="text/css"></style></defs><path d="M252.9 630.2c0 16.6 10.2 30 22.8 30h377.1c12.6 0 22.8-13.4 22.8-30s-10.2-30-22.8-30H275.7c-12.6 0-22.8 13.4-22.8 30zM521.6 384H275.7c-12.6 0-22.8 13.4-22.8 30s10.2 30 22.8 30h245.9c12.6 0 22.8-13.4 22.8-30s-10.1-30-22.8-30z" fill="#4192d3" p-id="2658"></path><path d="M828.8 387.1c-16.6 0-30 13.4-30 30v422.1c0 16-12.7 28.9-28.3 28.9h-548c-15.6 0-28.3-13-28.3-28.9V246.9c0-16 12.7-28.9 28.3-28.9h421.1c16.6 0 30-13.4 30-30s-13.4-30-30-30H222.5c-48.7 0-88.3 39.9-88.3 88.9v592.3c0 49 39.6 88.9 88.3 88.9h548.1c48.7 0 88.3-39.9 88.3-88.9V417.1c-0.1-16.6-13.5-30-30.1-30z" fill="#4192d3" p-id="2659"></path><path d="M918.4 105.7c-11.7-11.8-30.7-11.8-42.4-0.1L617.4 362.5c-11.8 11.7-11.8 30.7-0.1 42.4 5.9 5.9 13.6 8.9 21.3 8.9 7.6 0 15.3-2.9 21.1-8.7l258.6-256.9c11.7-11.7 11.8-30.7 0.1-42.5z" fill="#4192d3" p-id="2660"></path></svg>