<?xml version="1.0" standalone="no"?><!DOCTYPE svg PUBLIC "-//W3C//DTD SVG 1.1//EN" "http://www.w3.org/Graphics/SVG/1.1/DTD/svg11.dtd"><svg t="1638524218817" class="icon" viewBox="0 0 1024 1024" version="1.1" xmlns="http://www.w3.org/2000/svg" p-id="2315" xmlns:xlink="http://www.w3.org/1999/xlink" width="300" height="300"><defs><style type="text/css"></style></defs><path d="M270.62528 600.512L402.496 468.64256l45.2544 45.2544-131.87072 131.872z" fill="" p-id="2316"></path><path d="M293.248 623.232m-32 0a32 32 0 1 0 64 0 32 32 0 1 0-64 0Z" fill="" p-id="2317"></path><path d="M425.216 491.264m-25.6 0a25.6 25.6 0 1 0 51.2 0 25.6 25.6 0 1 0-51.2 0Z" fill="" p-id="2318"></path><path d="M404.22656 516.50688l40.2368-49.7728 157.9776 127.712-40.23552 49.7728z" fill="" p-id="2319"></path><path d="M424.32 491.648m-32 0a32 32 0 1 0 64 0 32 32 0 1 0-64 0Z" fill="" p-id="2320"></path><path d="M557.36576 595.43296l207.1744-207.17568 45.2544 45.2544-207.1744 207.17568z" fill="" p-id="2321"></path><path d="M579.968 618.112m-32 0a32 32 0 1 0 64 0 32 32 0 1 0-64 0Z" fill="" p-id="2322"></path><path d="M787.072 410.88m-32 0a32 32 0 1 0 64 0 32 32 0 1 0-64 0Z" fill="" p-id="2323"></path><path d="M202.88 776.32h665.6v64h-665.6z" fill="" p-id="2324"></path><path d="M202.88 808.32m-25.6 0a25.6 25.6 0 1 0 51.2 0 25.6 25.6 0 1 0-51.2 0Z" fill="" p-id="2325"></path><path d="M868.48 808.32m-32 0a32 32 0 1 0 64 0 32 32 0 1 0-64 0Z" fill="" p-id="2326"></path><path d="M170.88 257.92h64v550.4h-64z" fill="" p-id="2327"></path><path d="M202.88 808.32m-32 0a32 32 0 1 0 64 0 32 32 0 1 0-64 0Z" fill="" p-id="2328"></path><path d="M202.88 257.92m-32 0a32 32 0 1 0 64 0 32 32 0 1 0-64 0Z" fill="" p-id="2329"></path></svg>