<?xml version="1.0" standalone="no"?><!DOCTYPE svg PUBLIC "-//W3C//DTD SVG 1.1//EN" "http://www.w3.org/Graphics/SVG/1.1/DTD/svg11.dtd"><svg t="1638524148201" class="icon" viewBox="0 0 1024 1024" version="1.1" xmlns="http://www.w3.org/2000/svg" p-id="2168" xmlns:xlink="http://www.w3.org/1999/xlink" width="300" height="300"><defs><style type="text/css"></style></defs><path d="M802.176 878.336H223.104c-26.112 0-47.36-21.248-47.36-47.36V175.36c0-26.112 21.248-47.36 47.36-47.36h579.072c26.112 0 47.36 21.248 47.36 47.36v655.616c0 26.112-21.248 47.36-47.36 47.36z m-562.432-64h545.792V192H239.744v622.336z" fill="#606060" p-id="2169"></path><path d="M561.28 328.32h128v64h-128z" fill="#606060" p-id="2170"></path><path d="M561.28 360.32m-32 0a32 32 0 1 0 64 0 32 32 0 1 0-64 0Z" fill="#606060" p-id="2171"></path><path d="M689.28 360.32m-32 0a32 32 0 1 0 64 0 32 32 0 1 0-64 0Z" fill="#606060" p-id="2172"></path><path d="M334.65216 420.00896l119.10912-119.1104 45.2544 45.2544-119.10912 119.1104z" fill="#606060" p-id="2173"></path><path d="M357.248 442.752m-32 0a32 32 0 1 0 64 0 32 32 0 1 0-64 0Z" fill="#606060" p-id="2174"></path><path d="M476.416 323.584m-32 0a32 32 0 1 0 64 0 32 32 0 1 0-64 0Z" fill="#606060" p-id="2175"></path><path d="M271.08224 401.61664l45.2544-45.2544 63.35616 63.35616-45.2544 45.2544z" fill="#606060" p-id="2176"></path><path d="M293.76 379.008m-32 0a32 32 0 1 0 64 0 32 32 0 1 0-64 0Z" fill="#606060" p-id="2177"></path><path d="M334.65088 624.8064l119.10912-119.10912 45.2544 45.2544-119.10912 119.10912z" fill="#606060" p-id="2178"></path><path d="M357.248 647.552m-32 0a32 32 0 1 0 64 0 32 32 0 1 0-64 0Z" fill="#606060" p-id="2179"></path><path d="M476.416 528.384m-32 0a32 32 0 1 0 64 0 32 32 0 1 0-64 0Z" fill="#606060" p-id="2180"></path><path d="M271.08096 606.41664l45.2544-45.2544 63.35616 63.35616-45.2544 45.2544z" fill="#606060" p-id="2181"></path><path d="M293.76 583.808m-32 0a32 32 0 1 0 64 0 32 32 0 1 0-64 0Z" fill="#606060" p-id="2182"></path><path d="M561.28 456.32h128v64h-128z" fill="#606060" p-id="2183"></path><path d="M561.28 488.32m-32 0a32 32 0 1 0 64 0 32 32 0 1 0-64 0Z" fill="#606060" p-id="2184"></path><path d="M689.28 488.32m-32 0a32 32 0 1 0 64 0 32 32 0 1 0-64 0Z" fill="#606060" p-id="2185"></path><path d="M561.28 597.12h128v64h-128z" fill="#606060" p-id="2186"></path><path d="M561.28 629.12m-32 0a32 32 0 1 0 64 0 32 32 0 1 0-64 0Z" fill="#606060" p-id="2187"></path><path d="M689.28 629.12m-32 0a32 32 0 1 0 64 0 32 32 0 1 0-64 0Z" fill="#606060" p-id="2188"></path></svg>