<?xml version="1.0" standalone="no"?><!DOCTYPE svg PUBLIC "-//W3C//DTD SVG 1.1//EN" "http://www.w3.org/Graphics/SVG/1.1/DTD/svg11.dtd"><svg t="1638616484207" class="icon" viewBox="0 0 1024 1024" version="1.1" xmlns="http://www.w3.org/2000/svg" p-id="5449" xmlns:xlink="http://www.w3.org/1999/xlink" width="500" height="500"><defs><style type="text/css"></style></defs><path d="M235.6 551L490 761c0.2 0.2 0.5 0.4 0.7 0.5 0.1 0.1 0.2 0.2 0.4 0.3 0.6 0.4 1.2 0.9 1.8 1.3 0.1 0.1 0.2 0.1 0.3 0.2 3 2 6.3 3.5 9.7 4.4 1.8 0.5 3.6 0.9 5.5 1.1h0.4c0.5 0 1 0.1 1.4 0.1h4.5c0.4 0 0.8-0.1 1.2-0.1 0.2 0 0.4 0 0.6-0.1 0.4 0 0.8-0.1 1.2-0.2 0.2 0 0.4-0.1 0.6-0.1 0.5-0.1 1.1-0.2 1.6-0.3 0.2 0 0.3-0.1 0.5-0.1 0.4-0.1 0.8-0.2 1.1-0.3 0.3-0.1 0.5-0.1 0.8-0.2l0.9-0.3c0.3-0.1 0.6-0.2 0.8-0.3 0.2-0.1 0.5-0.2 0.7-0.3 1.1-0.4 2.2-0.9 3.3-1.4 0.1-0.1 0.3-0.1 0.4-0.2 0.3-0.2 0.7-0.4 1-0.6 0.1-0.1 0.3-0.2 0.4-0.2 0.4-0.2 0.7-0.4 1-0.6 0.1 0 0.2-0.1 0.2-0.1 1.1-0.7 2.2-1.5 3.2-2.3l0.3-0.3L789.7 551c14.9-12.3 17.1-34.3 4.8-49.3-12.3-14.9-34.3-17.1-49.3-4.8l-198 162.8V117.4c0-19.3-15.7-35-35-35s-35 15.7-35 35v542.3L280.2 497c-14.9-12.3-37-10.2-49.3 4.7-12.3 15-10.2 37 4.7 49.3z" p-id="5450"></path><path d="M925.8 598.2c-19.3 0-35 15.7-35 35v238.4H133.2V633.2c0-19.3-15.7-35-35-35s-35 15.7-35 35v273.4c0 19.3 15.7 35 35 35h827.5c19.3 0 35-15.7 35-35V633.2c0.1-19.3-15.6-35-34.9-35z" p-id="5451"></path></svg>