<?xml version="1.0" standalone="no"?><!DOCTYPE svg PUBLIC "-//W3C//DTD SVG 1.1//EN" "http://www.w3.org/Graphics/SVG/1.1/DTD/svg11.dtd"><svg t="1625037143725" class="icon" viewBox="0 0 1024 1024" version="1.1" xmlns="http://www.w3.org/2000/svg" p-id="1367" xmlns:xlink="http://www.w3.org/1999/xlink" width="200" height="200"><defs><style type="text/css"></style></defs><path d="M510.138193 0.006051c21.131511 0 40.913213 7.354138 55.388763 20.572969 11.077753 10.100304 19.269704 23.36568 23.458771 37.934322l2.094533 9.122855 7.214503 2.234168 10.007213 3.537434 10.612301 2.746166 4.095976 1.117084 5.02688 1.861807c48.453532 17.687168 90.809645 46.265908 125.951255 84.991498 56.645483 62.230905 89.180564 145.779502 92.485272 236.496057l0.279271 15.220274v225.883756l92.950723 122.879274 0.605088 0.930903c7.540319 8.052316 12.334473 18.990433 13.544647 30.626728l0.325816 5.864693v57.436751c0 28.392559-21.596963 51.897875-49.2448 54.690586l-5.585421 0.279271h-258.325746l-0.465452 2.327259A130.326503 130.326503 0 0 1 512.09309 1024a129.954141 129.954141 0 0 1-88.15657-34.210707 129.535235 129.535235 0 0 1-38.353228-63.720351l-2.513439-11.729385H124.790652c-28.392559 0-51.85133-21.690054-54.690586-49.384435L69.820795 859.323155v-57.436752c0-12.008656 3.86325-23.505316 11.077752-33.047077l4.282157-5.073425 92.531817-122.413822-0.232726-225.418304c0-96.348522 32.953987-185.808357 92.764543-251.716331a314.691959 314.691959 0 0 1 111.475705-79.359531l14.335915-5.585421 11.58975-4.189067 4.142521-1.256719 9.309035-3.490889 6.423235-2.094533 1.722172-0.465452 0.325816-1.722171c3.258163-17.454442 12.194837-33.512529 25.274033-45.474641A80.988612 80.988612 0 0 1 510.138193 0.006051z m57.809113 157.881249l-56.785119-7.354139-2.001443 0.139636-55.202583 6.842141-17.733713 6.143964-8.191952 3.025437c-34.117617 12.474108-63.813441 32.53508-88.854748 60.089826-41.145939 45.38155-65.442522 107.147003-68.281778 175.335692l-0.325816 13.730828 0.279271 256.696665L162.911154 815.33796v5.864693l698.177692 0.139635v-6.376689l-107.426274-142.009343V415.840685c0-73.96029-24.668945-140.938804-68.607595-189.15961a221.322329 221.322329 0 0 0-76.241004-55.062947l-14.38246-5.678512-8.610858-3.258163-17.873349-4.794153z" p-id="1368"></path></svg>