<?xml version="1.0" standalone="no"?><!DOCTYPE svg PUBLIC "-//W3C//DTD SVG 1.1//EN" "http://www.w3.org/Graphics/SVG/1.1/DTD/svg11.dtd"><svg t="1638616655685" class="icon" viewBox="0 0 1024 1024" version="1.1" xmlns="http://www.w3.org/2000/svg" p-id="5714" xmlns:xlink="http://www.w3.org/1999/xlink" width="500" height="500"><defs><style type="text/css"></style></defs><path d="M645.248 608.768c10.496 10.752 10.496 28.032 0 38.784s-27.52 10.752-38.016 0L512 550.656l-95.104 96.896c-10.496 10.752-27.52 10.752-38.016 0s-10.496-28.032 0-38.784l95.104-96.896-95.232-96.896c-10.496-10.752-10.496-28.032 0-38.784 10.368-10.752 27.52-10.752 38.016 0l95.232 96.896 95.104-96.896c10.496-10.752 27.52-10.752 38.016 0s10.496 28.032 0 38.784L550.016 512l95.232 96.768z" fill="#ffffff" p-id="5715"></path><path d="M512 881.792c-203.904 0-369.92-165.888-369.92-369.92S308.096 142.08 512 142.08s369.92 165.888 369.92 369.92c0 27.136-2.944 54.4-8.832 81.024-2.688 12.416-14.848 20.352-27.648 17.536-12.416-2.816-20.352-15.104-17.536-27.648 5.248-23.296 7.808-47.232 7.808-71.04 0-178.432-145.152-323.584-323.712-323.584S188.288 333.44 188.288 512 333.568 835.584 512 835.584c30.592 0 60.928-4.224 89.984-12.672 12.288-3.584 25.088 3.584 28.672 15.744 3.584 12.288-3.456 25.088-15.744 28.672-33.28 9.6-67.84 14.464-102.912 14.464z" fill="#ffffff" p-id="5716"></path></svg>