<?xml version="1.0" standalone="no"?><!DOCTYPE svg PUBLIC "-//W3C//DTD SVG 1.1//EN" "http://www.w3.org/Graphics/SVG/1.1/DTD/svg11.dtd"><svg t="1638524104789" class="icon" viewBox="0 0 1024 1024" version="1.1" xmlns="http://www.w3.org/2000/svg" p-id="2034" xmlns:xlink="http://www.w3.org/1999/xlink" width="300" height="300"><defs><style type="text/css"></style></defs><path d="M801.92 915.2h-578.56c-27.776 0-50.432-22.656-50.432-50.432V209.28c0-27.776 22.656-50.432 50.432-50.432h135.808v64h-122.24V851.2h551.424V222.848h-125.184v-64h138.752c27.776 0 50.432 22.656 50.432 50.432v655.488c0 27.776-22.656 50.432-50.432 50.432z" fill="#606060" p-id="2035"></path><path d="M635.776 284.416H389.504c-26.112 0-47.36-21.248-47.36-47.36V144.64c0-26.112 21.248-47.36 47.36-47.36h246.272c26.112 0 47.36 21.248 47.36 47.36v92.416c0 26.112-21.248 47.36-47.36 47.36z m-229.632-64h212.992V161.28H406.144v59.136zM339.584 421.12h338.432v64H339.584z" fill="#606060" p-id="2036"></path><path d="M339.584 453.12m-32 0a32 32 0 1 0 64 0 32 32 0 1 0-64 0Z" fill="#606060" p-id="2037"></path><path d="M674.944 453.12m-32 0a32 32 0 1 0 64 0 32 32 0 1 0-64 0Z" fill="#606060" p-id="2038"></path><path d="M339.584 559.616h338.432v64H339.584z" fill="#606060" p-id="2039"></path><path d="M339.584 591.616m-32 0a32 32 0 1 0 64 0 32 32 0 1 0-64 0Z" fill="#606060" p-id="2040"></path><path d="M674.944 591.616m-32 0a32 32 0 1 0 64 0 32 32 0 1 0-64 0Z" fill="#606060" p-id="2041"></path></svg>