<?xml version="1.0" standalone="no"?><!DOCTYPE svg PUBLIC "-//W3C//DTD SVG 1.1//EN" "http://www.w3.org/Graphics/SVG/1.1/DTD/svg11.dtd"><svg t="1631779743425" class="icon" viewBox="0 0 1024 1024" version="1.1" xmlns="http://www.w3.org/2000/svg" p-id="3068" xmlns:xlink="http://www.w3.org/1999/xlink" width="200" height="200"><defs><style type="text/css"></style></defs><path d="M772 96c86.4 0 156 69.6 156 156v520c0 86.4-69.6 156-156 156h-520C165.6 928 96 858.4 96 772v-520C96 165.6 165.6 96 252 96h520z m0 78.4h-16v195.2c0 21.6-17.6 39.2-39.2 39.2H307.2c-21.6 0-39.2-17.6-39.2-39.2V174.4h-16c-42.4 0-76.8 33.6-78.4 76.8v521.6c0 42.4 33.6 77.6 76.8 78.4h521.6c42.4 0 77.6-33.6 78.4-76.8V252c0-42.4-34.4-76.8-76.8-77.6h-1.6z m-85.6 0H337.6v164.8h348.8V174.4z m-73.6 43.2c5.6 0 11.2 4.8 11.2 10.4v47.2c0 5.6-4.8 11.2-11.2 11.2h-47.2c-5.6 0-11.2-4.8-11.2-11.2v-47.2c0-5.6 4.8-11.2 10.4-11.2h48z" p-id="3069" fill="#ffffff"></path></svg>