<?xml version="1.0" standalone="no"?><!DOCTYPE svg PUBLIC "-//W3C//DTD SVG 1.1//EN" "http://www.w3.org/Graphics/SVG/1.1/DTD/svg11.dtd"><svg t="1638779543069" class="icon" viewBox="0 0 1024 1024" version="1.1" xmlns="http://www.w3.org/2000/svg" p-id="1850" xmlns:xlink="http://www.w3.org/1999/xlink" width="200" height="200"><defs><style type="text/css"></style></defs><path d="M367.607914 446.089871l-49.316196 49.348941 158.494781 158.494781 352.22711-352.22711-49.318242-49.299823-302.908868 302.882262L367.607914 446.089871zM793.774013 513.034563c0 154.959258-126.765125 281.750989-281.750989 281.750989s-281.804201-126.791731-281.804201-281.750989c0-154.964374 126.818337-281.756105 281.804201-281.756105 28.167526 0 52.828182 3.482311 77.438697 10.578939l56.389288-56.391335c-42.25436-14.087856-88.064708-24.663726-133.827985-24.663726-193.731306 0-352.22711 158.494781-352.22711 352.232227 0 193.732329 158.495804 352.22711 352.22711 352.22711 193.680141 0 352.181061-158.494781 352.181061-352.22711L793.774013 513.034563z" p-id="1851" fill="#4192D3"></path></svg>