<?xml version="1.0" standalone="no"?><!DOCTYPE svg PUBLIC "-//W3C//DTD SVG 1.1//EN" "http://www.w3.org/Graphics/SVG/1.1/DTD/svg11.dtd"><svg t="1638524299948" class="icon" viewBox="0 0 1024 1024" version="1.1" xmlns="http://www.w3.org/2000/svg" p-id="2456" xmlns:xlink="http://www.w3.org/1999/xlink" width="300" height="300"><defs><style type="text/css"></style></defs><path d="M881.792 790.912H149.504c-26.112 0-47.36-21.248-47.36-47.36V248.064c0-26.112 21.248-47.36 47.36-47.36h732.288c26.112 0 47.36 21.248 47.36 47.36v495.488c0 26.112-21.248 47.36-47.36 47.36z m-715.648-64h699.008V264.704H166.144v462.208zM314.112 841.856h396.8v64h-396.8z" fill="#606060" p-id="2457"></path><path d="M314.112 873.856m-32 0a32 32 0 1 0 64 0 32 32 0 1 0-64 0Z" fill="#606060" p-id="2458"></path><path d="M710.912 873.856m-32 0a32 32 0 1 0 64 0 32 32 0 1 0-64 0Z" fill="#606060" p-id="2459"></path></svg>