<?xml version="1.0" standalone="no"?><!DOCTYPE svg PUBLIC "-//W3C//DTD SVG 1.1//EN" "http://www.w3.org/Graphics/SVG/1.1/DTD/svg11.dtd"><svg t="1638605969129" class="icon" viewBox="0 0 1024 1024" version="1.1" xmlns="http://www.w3.org/2000/svg" p-id="2947" width="500" height="500" data-spm-anchor-id="a313x.7781069.0.i12" xmlns:xlink="http://www.w3.org/1999/xlink"><defs><style type="text/css"></style></defs><path d="M512 943.36c-111.104 0-215.552-43.264-294.144-121.856C139.264 742.912 96 638.464 96 527.36s43.264-215.552 121.856-294.144C296.448 154.624 400.896 111.36 512 111.36s215.552 43.264 294.144 121.856c78.592 78.592 121.856 183.04 121.856 294.144s-43.264 215.552-121.856 294.144C727.552 900.096 623.104 943.36 512 943.36z m0-768c-94.08 0-182.4 36.608-248.96 103.04-66.432 66.56-103.04 154.88-103.04 248.96s36.608 182.4 103.04 248.96c66.432 66.432 154.88 103.04 248.96 103.04s182.4-36.608 248.96-103.04c66.432-66.432 103.04-154.88 103.04-248.96s-36.608-182.4-103.04-248.96c-66.56-66.432-154.88-103.04-248.96-103.04z" fill="" p-id="2948"></path><path d="M761.6 491.52H262.4c-17.536 0-32-14.336-32-32s14.336-32 32-32h499.2c17.664 0 32 14.336 32 32s-14.336 32-32 32z" fill="" p-id="2949"></path><path d="M743.04 481.664L638.976 377.6c-12.416-12.416-12.416-32.768 0-45.312 12.416-12.416 32.768-12.416 45.312 0l104.064 104.064c12.416 12.416 12.416 32.768 0 45.312-12.544 12.544-32.896 12.544-45.312 0zM339.84 728.704L235.776 624.64c-12.416-12.416-12.416-32.768 0-45.312 12.416-12.416 32.768-12.416 45.312 0l104.064 104.064c12.416 12.416 12.416 32.768 0 45.312-12.544 12.544-32.896 12.544-45.312 0z" fill="" p-id="2950"></path><path d="M761.6 633.6H262.4c-17.536 0-32-14.336-32-32s14.336-32 32-32h499.2c17.664 0 32 14.336 32 32s-14.336 32-32 32z" fill="" p-id="2951"></path></svg>