<?xml version="1.0" standalone="no"?><!DOCTYPE svg PUBLIC "-//W3C//DTD SVG 1.1//EN" "http://www.w3.org/Graphics/SVG/1.1/DTD/svg11.dtd"><svg t="1638523315342" class="icon" viewBox="0 0 1024 1024" version="1.1" xmlns="http://www.w3.org/2000/svg" p-id="2198" xmlns:xlink="http://www.w3.org/1999/xlink" width="300" height="300"><defs><style type="text/css"></style></defs><path d="M476.8 865.92h-326.4c-26.112 0-47.36-21.248-47.36-47.36v-1.408l51.2-576.384c0.896-25.344 21.76-45.568 47.36-45.568h224c25.472 0 46.336 20.224 47.36 45.568l51.2 576.384v1.408c0 26.112-21.248 47.36-47.36 47.36z m-308.096-64h289.92l-48.256-542.72H216.832l-48.128 542.72zM814.08 517.12H599.04c-25.472 0-46.208-20.096-47.36-45.312l-23.04-228.224V241.92c0-26.112 21.248-47.36 47.36-47.36h202.24c25.088 0 45.568 19.584 47.232 44.16L861.44 467.2v2.56c0 26.112-21.248 47.36-47.36 47.36z m-199.936-64h180.224l-30.592-194.56H594.432l19.712 194.56zM867.84 865.92H640c-25.344 0-46.08-20.096-47.36-45.056l-26.88-241.152v-1.792c0-26.112 21.248-47.36 47.36-47.36h215.04c24.96 0 45.568 19.456 47.232 44.032L915.2 816v2.56c0 26.112-21.248 47.36-47.36 47.36z m-212.864-64h193.024l-34.176-207.36H631.808l23.168 207.36z" fill="" p-id="2199"></path></svg>