<?xml version="1.0" standalone="no"?><!DOCTYPE svg PUBLIC "-//W3C//DTD SVG 1.1//EN" "http://www.w3.org/Graphics/SVG/1.1/DTD/svg11.dtd"><svg t="1638524016728" class="icon" viewBox="0 0 1024 1024" version="1.1" xmlns="http://www.w3.org/2000/svg" p-id="1765" xmlns:xlink="http://www.w3.org/1999/xlink" width="300" height="300"><defs><style type="text/css"></style></defs><path d="M198.912 519.936l-56.576-35.2-2.56-2.56c-8.96-8.96-13.824-20.864-13.824-33.536s4.864-24.576 13.824-33.536l2.56-2.56L482.56 200.576c8.448-6.912 18.944-10.752 30.08-10.752s21.632 3.84 30.08 10.752l340.224 211.968 2.56 2.56c8.96 8.96 13.824 20.864 13.824 33.536s-4.864 24.576-13.824 33.536l-2.56 2.56-52.48 32.64-33.792-54.272 23.168-14.464-307.2-191.36-307.2 191.36 27.264 17.024-33.792 54.272zM512.64 873.728c-10.624 0-21.376-3.584-30.08-10.752l-337.152-209.92 33.792-54.272L512.64 806.4l333.312-207.616 33.792 54.272L542.72 863.104c-8.704 7.168-19.456 10.624-30.08 10.624z" fill="#606060" p-id="1766"></path><path d="M162.56 625.92m-32 0a32 32 0 1 0 64 0 32 32 0 1 0-64 0Z" fill="#606060" p-id="1767"></path><path d="M215.04 492.8m-32 0a32 32 0 1 0 64 0 32 32 0 1 0-64 0Z" fill="#606060" p-id="1768"></path><path d="M812.8 490.24m-32 0a32 32 0 1 0 64 0 32 32 0 1 0-64 0Z" fill="#606060" p-id="1769"></path><path d="M678.4 531.2m-32 0a32 32 0 1 0 64 0 32 32 0 1 0-64 0Z" fill="#606060" p-id="1770"></path><path d="M345.6 531.2m-32 0a32 32 0 1 0 64 0 32 32 0 1 0-64 0Z" fill="#606060" p-id="1771"></path><path d="M862.72 625.92m-32 0a32 32 0 1 0 64 0 32 32 0 1 0-64 0Z" fill="#606060" p-id="1772"></path><path d="M346.24 499.2h332.8v64h-332.8z" fill="#606060" p-id="1773"></path><path d="M512 364.8m-32 0a32 32 0 1 0 64 0 32 32 0 1 0-64 0Z" fill="#606060" p-id="1774"></path><path d="M512 697.6m-32 0a32 32 0 1 0 64 0 32 32 0 1 0-64 0Z" fill="#606060" p-id="1775"></path><path d="M480 364.16h64v332.8h-64z" fill="#606060" p-id="1776"></path></svg>