<?xml version="1.0" standalone="no"?><!DOCTYPE svg PUBLIC "-//W3C//DTD SVG 1.1//EN" "http://www.w3.org/Graphics/SVG/1.1/DTD/svg11.dtd"><svg t="1638524062219" class="icon" viewBox="0 0 1024 1024" version="1.1" xmlns="http://www.w3.org/2000/svg" p-id="1903" xmlns:xlink="http://www.w3.org/1999/xlink" width="300" height="300"><defs><style type="text/css"></style></defs><path d="M584.96 768.384l-0.256-14.08c-0.384-24.32 12.672-46.592 33.92-58.24C691.072 656.896 736 581.504 736 499.2c0-59.904-23.808-116.48-67.072-159.104s-100.224-65.664-160.128-64.896c-59.136 0.768-114.688 24.448-156.288 66.56-41.6 42.24-64.512 98.176-64.512 157.44 0 82.944 45.568 158.72 118.784 197.76 21.504 11.392 34.816 33.664 34.816 58.112V768h-64v-12.928c0-0.64-0.384-1.28-0.896-1.664C282.496 703.232 224 605.824 224 499.2c0-76.288 29.44-148.096 83.072-202.368 53.504-54.144 124.928-84.608 200.96-85.632 77.312-1.024 150.4 28.544 205.952 83.328C769.408 349.312 800 422.016 800 499.2c0 105.728-57.728 202.752-150.784 253.312-0.128 0.128-0.512 0.512-0.384 1.024l0.256 14.08-64.128 0.768z" fill="#606060" p-id="1904"></path><path d="M600.064 871.68H426.496c-26.88 0-48.896-21.888-48.896-48.896v-52.096c0-26.88 21.888-48.896 48.896-48.896h173.696c26.88 0 48.896 21.888 48.896 48.896v52.096c-0.128 27.008-22.016 48.896-49.024 48.896zM441.6 807.68h143.36v-21.76H441.6v21.76z" fill="#606060" p-id="1905"></path><path d="M480 497.92h64v248.32h-64zM480 115.2h64v69.12h-64zM825.6 450.56h69.12v64h-69.12zM129.28 450.56h69.12v64h-69.12zM205.09184 249.07008l45.2544-45.2544 48.87424 48.87424-45.2544 45.2544zM724.768 252.69376l48.87552-48.87552 45.2544 45.2544-48.87552 48.87552zM555.52 910.08h-84.48c-8.448 0-15.36-6.912-15.36-15.36v-28.16c0-8.448 6.912-15.36 15.36-15.36h84.48c8.448 0 15.36 6.912 15.36 15.36v28.16c0 8.448-6.912 15.36-15.36 15.36z" fill="#606060" p-id="1906"></path><path d="M576 532.992H445.44c-8.448 0-15.36-6.912-15.36-15.36V471.04c0-8.448 6.912-15.36 15.36-15.36h130.56c8.448 0 15.36 6.912 15.36 15.36v46.592c0 8.448-6.912 15.36-15.36 15.36z" fill="#606060" p-id="1907"></path></svg>